<?xml version="1.0" standalone="no"?><!-- Generator: Gravit.io --><svg xmlns="http://www.w3.org/2000/svg" xmlns:xlink="http://www.w3.org/1999/xlink" style="isolation:isolate" viewBox="0 0 1000 600" width="1000" height="600"><defs><clipPath id="_clipPath_RBL8RuU8b0s1uKgyVmm3cr4ornXSu1Cc"><rect width="1000" height="600"/></clipPath></defs><g clip-path="url(#_clipPath_RBL8RuU8b0s1uKgyVmm3cr4ornXSu1Cc)"><rect x="0" y="-0.487" width="1008.872" height="610.9" transform="matrix(1,0,0,1,0,0)" fill="rgb(86,82,72)"/><path d=" M -99.133 -34.76 C -99.442 -34.755 -99.745 -34.729 -100.035 -34.687 C -100.754 -34.583 -97.802 -32.125 -88.925 -23.272 C -78.975 -13.348 -70.435 -3.872 -65.512 2.73 C -59.466 10.932 -53.017 21.669 -48.775 32.366 C -47.915 33.979 -45.062 44.534 -44.121 49.598 C -43.585 52.487 -43.057 55.132 -42.944 55.473 C -42.112 57.984 -39.011 46.87 -38.043 42.284 C -36.839 36.582 -36.798 30.659 -36.981 24.834 C -37.168 18.897 -37.453 12.835 -39.177 7.15 C -40.646 2.31 -42.842 -2.45 -45.997 -6.403 C -52.681 -14.773 -61.385 -21.737 -70.806 -26.835 C -77.352 -30.377 -84.857 -31.824 -92.11 -33.495 C -94.387 -34.019 -96.969 -34.798 -99.133 -34.76 L -99.133 -34.76 Z  M 99.136 -34.76 C 96.972 -34.798 94.39 -34.019 92.113 -33.495 C 84.859 -31.824 77.355 -30.377 70.809 -26.834 C 61.389 -21.737 52.684 -14.773 46.001 -6.403 C 42.845 -2.45 40.649 2.311 39.18 7.15 C 37.456 12.834 37.171 18.897 36.984 24.834 C 36.801 30.658 36.842 36.582 38.046 42.284 C 39.014 46.871 42.115 57.985 42.947 55.473 C 43.06 55.132 43.588 52.487 44.125 49.598 C 45.065 44.535 47.903 33.979 48.763 32.366 C 53.006 21.67 59.469 10.932 65.516 2.73 C 70.439 -3.872 78.964 -13.348 88.914 -23.272 C 97.791 -32.125 100.759 -34.583 100.039 -34.687 C 99.748 -34.729 99.446 -34.754 99.137 -34.76 L 99.136 -34.76 Z  M 0.002 -9.851 C -0.826 -9.918 -1.447 -4.071 -2.063 -1.155 C -2.988 3.216 -3.36 7.702 -4.506 12.02 C -6.384 19.09 -8.879 26.007 -11.734 32.742 C -14.181 38.517 -18.228 46.428 -20.183 49.553 C -25.786 58.511 -29.298 63.456 -34.317 69.504 C -40.5 76.953 -41.861 78.456 -47.594 84.191 C -58.637 95.239 -67.267 100.18 -78.103 106.673 C -85.547 111.133 -93.652 114.394 -101.603 117.871 C -119.459 125.646 -138.61 132.293 -158.521 138.768 C -171.52 143.196 -185.066 146.276 -197.494 152.117 C -216.076 160.852 -234.447 170.906 -250.049 184.255 C -261.791 194.301 -271.496 206.716 -280.063 219.578 C -285.274 227.399 -289.188 235.099 -292.861 244.706 C -295.892 251.139 -297.747 257.684 -299.666 264.337 C -301.18 269.587 -302.74 274.298 -303.36 280.305 C -303.623 282.224 -304.126 284.842 -304.48 286.122 C -305.437 289.586 -305.792 293.85 -305.236 295.312 C -304.914 296.613 -303.292 296.847 -302.837 295.312 C -302.295 293.873 -302.121 293.497 -301.324 292.171 C -299.535 289.201 -296.868 285.026 -294.257 281.73 C -284.447 269.347 -274.159 257.121 -262.148 246.858 C -247.528 234.365 -230.967 224.171 -214.13 214.881 C -195.651 204.684 -176.587 197.56 -156.341 189.011 C -148.416 185.588 -141.657 183.327 -132.681 178.482 C -130.028 176.676 -128.879 177.281 -129.976 179.908 C -130.347 180.796 -130.701 182.622 -130.776 183.965 C -130.946 187.012 -130.153 187.782 -127.795 186.83 C -125.923 186.073 -125.022 185.788 -119.811 184.168 C -117.546 183.464 -115.586 182.593 -115.449 182.234 C -115.179 181.532 -119.305 177.128 -123.461 173.684 C -125.841 171.712 -128.235 168.816 -127.824 168.405 C -127.713 168.294 -125.788 168.393 -124.683 168.536 C -122.271 168.848 -121.733 168.792 -114.358 169.045 C -102.708 169.443 -102.542 169.686 -104.149 165.526 C -105.434 162.212 -106.759 159.063 -108.163 155.666 C -108.829 154.381 -109.245 153.133 -109.094 152.889 C -108.938 152.638 -105.423 152.422 -101.023 152.394 C -96.732 152.367 -92.076 152.196 -90.669 152.001 L -88.11 151.638 C -87.139 150.634 -88.221 146.923 -88.503 144.585 C -88.716 142.809 -89.317 140.714 -89.477 139.306 C -89.637 137.899 -89.881 135.986 -90.015 135.06 C -90.169 133.999 -90.044 133.374 -89.564 133.14 C -89.061 132.896 -88.169 133.081 -86.816 133.679 C -85.733 134.156 -83.596 135.014 -82.06 135.569 C -80.525 136.124 -78.212 136.977 -76.927 137.474 C -74.227 138.518 -72.729 138.618 -72.201 137.794 C -71.721 137.044 -70.703 134.346 -70.223 132.559 C -68.826 127.356 -58.995 112.97 -56.249 112.098 C -55.482 111.855 -52.83 113.488 -51.581 114.585 C -51.138 114.974 -43.873 120.733 -42.216 121.783 C -40.717 122.734 -39.592 122.553 -39.206 121.289 C -39.067 120.835 -38.555 119.622 -38.071 118.599 C -36.204 114.643 -34.29 111.243 -31.324 104.377 C -30.746 101.746 -29.826 102.477 -26.002 108.594 C -20.63 117.184 -13.257 124.706 -4.377 130.64 C -1.017 132.885 -1.714 132.504 0 133.388 C 1.714 132.504 1.017 132.885 4.377 130.64 C 13.256 124.706 20.63 117.184 26.001 108.594 C 29.826 102.477 30.746 101.746 31.324 104.377 C 34.29 111.243 36.204 114.643 38.071 118.599 C 38.555 119.622 39.067 120.835 39.205 121.289 C 39.592 122.553 40.716 122.734 42.216 121.783 C 43.873 120.733 51.138 114.974 51.581 114.585 C 52.83 113.488 55.482 111.855 56.249 112.098 C 58.996 112.97 68.826 127.356 70.223 132.559 C 70.703 134.346 71.721 137.044 72.201 137.794 C 72.729 138.618 74.227 138.518 76.927 137.474 C 78.212 136.977 80.525 136.124 82.06 135.569 C 83.596 135.014 85.733 134.156 86.816 133.679 C 88.169 133.081 89.061 132.896 89.564 133.14 C 90.044 133.374 90.169 133.999 90.015 135.06 C 89.881 135.986 89.637 137.899 89.477 139.306 C 89.317 140.714 88.716 142.809 88.503 144.585 C 88.221 146.923 87.138 150.634 88.11 151.638 L 90.669 152.001 C 92.077 152.196 96.733 152.367 101.023 152.394 C 105.423 152.422 108.938 152.638 109.093 152.889 C 109.245 153.133 108.829 154.381 108.163 155.666 C 106.759 159.063 105.434 162.212 104.149 165.526 C 102.542 169.686 102.708 169.443 114.358 169.045 C 121.732 168.792 122.27 168.848 124.683 168.536 C 125.788 168.393 127.713 168.294 127.824 168.405 C 128.235 168.816 125.841 171.712 123.461 173.684 C 119.305 177.128 115.18 181.532 115.449 182.234 C 115.586 182.593 117.546 183.464 119.811 184.168 C 125.022 185.788 125.923 186.073 127.795 186.83 C 130.153 187.782 130.946 187.012 130.776 183.965 C 130.701 182.622 130.347 180.796 129.976 179.908 C 128.879 177.281 130.028 176.677 132.681 178.482 C 141.657 183.327 148.416 185.588 156.341 189.011 C 176.587 197.561 195.652 204.684 214.13 214.881 C 230.968 224.171 247.528 234.365 262.148 246.858 C 274.158 257.121 284.446 269.347 294.257 281.73 C 296.868 285.026 299.535 289.201 301.324 292.171 C 302.121 293.497 302.295 293.873 302.837 295.312 C 303.292 296.847 304.914 296.613 305.236 295.312 C 305.792 293.85 305.437 289.586 304.48 286.122 C 304.126 284.842 303.623 282.224 303.36 280.305 C 302.74 274.298 301.18 269.588 299.666 264.337 C 297.748 257.683 295.892 251.139 292.861 244.706 C 289.188 235.099 285.274 227.399 280.063 219.578 C 271.496 206.717 261.79 194.301 250.049 184.255 C 234.447 170.906 216.076 160.851 197.494 152.117 C 185.066 146.275 171.52 143.196 158.521 138.768 C 138.611 132.294 119.459 125.646 101.604 117.871 C 93.653 114.394 85.547 111.134 78.103 106.673 C 67.268 100.18 58.637 95.239 47.594 84.191 C 41.862 78.456 40.5 76.954 34.317 69.504 C 29.298 63.456 25.786 58.511 20.183 49.553 C 18.228 46.429 14.181 38.517 11.734 32.742 C 8.879 26.006 6.384 19.09 4.506 12.02 C 3.36 7.702 2.988 3.216 2.063 -1.155 C 1.447 -4.071 0.826 -9.918 -0.002 -9.851 L 0.002 -9.851 Z  M -122.412 2.262 C -126.546 2.216 -130.71 2.773 -134.642 3.818 C -144.965 6.56 -152.65 11.942 -162.679 19.334 C -164.975 21.026 -166.216 22.459 -165.297 23.028 C -164.921 23.26 -156.693 21.207 -151.206 20.934 C -140.32 20.392 -129.339 22.526 -118.821 25.383 C -107.914 28.347 -97.664 33.461 -87.498 38.399 C -81.707 41.211 -77.263 43.991 -70.659 47.836 C -65.676 50.768 -65.713 49.169 -69.365 43.808 C -71.507 40.533 -73.668 36.44 -76.185 33.004 C -80.106 27.649 -83.979 22.087 -89.04 17.793 C -96.117 11.788 -103.983 5.933 -112.948 3.527 C -116.004 2.707 -119.2 2.297 -122.415 2.262 L -122.412 2.262 Z  M 122.416 2.262 C 119.201 2.297 116.005 2.706 112.949 3.527 C 103.985 5.933 96.118 11.787 89.041 17.793 C 83.981 22.087 80.108 27.649 76.186 33.004 C 73.669 36.44 71.508 40.533 69.366 43.808 C 65.714 49.169 65.677 50.768 70.66 47.836 C 77.264 43.99 81.709 41.211 87.499 38.398 C 97.666 33.461 107.916 28.347 118.822 25.383 C 129.34 22.525 140.321 20.392 151.207 20.933 C 156.694 21.206 164.923 23.26 165.298 23.027 C 166.217 22.459 164.976 21.026 162.68 19.334 C 152.651 11.942 144.966 6.56 134.643 3.817 C 130.711 2.773 126.547 2.216 122.413 2.261 L 122.416 2.262 Z  M -145.956 29.906 C -153.637 30.029 -161.025 32.031 -168.612 34.967 C -171.425 36.056 -180.833 41.507 -183.735 43.736 C -191.865 49.978 -199.286 57.044 -208.602 67.41 C -216.567 76.272 -217.705 77.688 -217.705 78.738 C -217.705 79.575 -215.391 79.257 -212.528 78.011 C -206.285 75.298 -198.593 72.112 -191.413 69.751 C -184.318 67.418 -177.152 65.096 -169.775 63.934 C -161.797 62.678 -153.629 62.104 -145.577 62.727 C -136.621 63.42 -128.123 67.314 -119.183 68.195 C -108.164 69.281 -96.914 69.606 -85.969 67.933 C -80.343 67.074 -75.01 64.841 -69.638 62.96 C -66.708 61.934 -61.825 59.839 -60.985 59.528 C -59.073 58.821 -58.364 58.118 -58.688 57.274 C -58.877 56.781 -60.368 56.548 -64.679 56.329 C -74.026 55.853 -85.579 52.457 -95.552 48.912 C -101.301 46.869 -106.606 43.742 -112.057 41.002 C -123.103 35.448 -131.798 30.12 -144.412 29.906 C -144.927 29.897 -145.442 29.898 -145.954 29.906 L -145.956 29.906 Z  M 144.422 29.906 C 131.807 30.12 123.098 35.448 112.051 41.002 C 106.6 43.743 101.31 46.87 95.56 48.913 C 85.588 52.457 74.034 55.853 64.687 56.329 C 60.376 56.549 58.87 56.782 58.681 57.275 C 58.358 58.119 59.081 58.822 60.994 59.529 C 61.834 59.839 66.716 61.934 69.646 62.96 C 75.018 64.842 80.351 67.074 85.977 67.934 C 96.922 69.606 108.173 69.282 119.191 68.196 C 128.13 67.314 136.629 63.421 145.585 62.728 C 153.637 62.105 161.805 62.679 169.783 63.935 C 177.161 65.096 184.327 67.419 191.421 69.752 C 198.601 72.112 206.293 75.299 212.537 78.011 C 215.399 79.258 217.713 79.575 217.713 78.738 C 217.713 77.688 216.56 76.272 208.596 67.411 C 199.28 57.045 191.873 49.979 183.743 43.736 C 180.84 41.507 171.433 36.056 168.62 34.968 C 160.527 31.836 152.659 29.767 144.422 29.907 L 144.422 29.906 Z  M -47.921 61.128 C -48.78 61.191 -50.815 62.64 -55.061 66.029 C -60.773 70.589 -65.36 73.154 -71.581 75.292 C -79.583 78.043 -85.873 79.466 -93.219 80.498 C -102.06 81.741 -111.05 81.514 -119.977 81.662 C -126.879 81.776 -133.783 81.556 -140.685 81.444 C -153.25 81.238 -165.047 80.355 -178.377 80.6 C -187.11 81.099 -195.955 81.545 -204.437 83.683 C -212.685 85.762 -220.871 88.693 -228.169 93.063 C -233.808 96.439 -238.689 101.039 -243.22 105.801 C -247.552 110.355 -251.322 115.456 -254.664 120.78 C -257.87 125.886 -260.535 131.349 -262.836 136.921 C -265.242 142.745 -267.021 148.817 -268.682 154.895 C -269.223 156.873 -269.614 159.133 -270.02 160.901 C -270.426 162.669 -271.217 165.33 -271.067 165.801 C -270.779 166.709 -269.296 166.418 -267.737 165.38 C -266.898 164.82 -258.11 158.925 -253.079 156.058 C -244.009 150.889 -234.667 146.173 -225.144 141.894 C -218.529 138.922 -211.773 136.246 -204.902 133.925 C -190.121 128.932 -175.041 124.778 -159.865 121.157 C -151.882 119.252 -143.655 118.466 -135.696 116.46 C -124.104 113.539 -112.36 110.685 -101.449 105.801 C -89.505 100.455 -78.122 93.641 -67.784 85.617 C -63.645 82.404 -58.975 77.537 -56.602 74.551 C -51.565 68.215 -50.227 66.485 -48.895 64.648 C -48.063 63.501 -47.382 62.25 -47.382 61.856 C -47.382 61.365 -47.53 61.1 -47.92 61.129 L -47.921 61.128 Z  M 47.925 61.128 C 47.535 61.1 47.402 61.365 47.402 61.856 C 47.402 62.25 48.083 63.501 48.914 64.648 C 50.247 66.485 51.585 68.214 56.621 74.551 C 58.996 77.537 63.665 82.404 67.804 85.617 C 78.141 93.642 89.524 100.454 101.469 105.801 C 112.379 110.685 124.124 113.539 135.716 116.46 C 143.674 118.466 151.901 119.252 159.885 121.157 C 175.06 124.778 190.14 128.932 204.921 133.925 C 211.792 136.246 218.549 138.922 225.164 141.894 C 234.687 146.173 244.028 150.889 253.099 156.058 C 258.13 158.925 266.903 164.82 267.742 165.38 C 269.301 166.418 270.799 166.709 271.087 165.801 C 271.237 165.33 270.446 162.668 270.04 160.901 C 269.634 159.133 269.243 156.873 268.702 154.895 C 267.041 148.817 265.262 142.745 262.856 136.921 C 260.554 131.349 257.889 125.886 254.684 120.78 C 251.342 115.456 247.557 110.356 243.224 105.801 C 238.694 101.038 233.827 96.439 228.188 93.063 C 220.89 88.693 212.703 85.762 204.455 83.683 C 195.974 81.545 187.128 81.099 178.396 80.6 C 165.066 80.355 153.269 81.238 140.704 81.444 C 133.802 81.556 126.898 81.776 119.996 81.662 C 111.07 81.514 102.079 81.741 93.238 80.498 C 85.892 79.466 79.602 78.042 71.6 75.292 C 65.378 73.154 60.792 70.588 55.08 66.029 C 50.834 62.64 48.784 61.19 47.926 61.128 L 47.925 61.128 Z  M -78.908 187.137 L -84.434 190.845 C -87.474 192.88 -92.473 196.013 -95.544 197.811 C -106.517 204.235 -107.601 204.916 -107.963 205.562 C -108.519 206.556 -106.723 208.491 -104.24 209.59 L -102.073 210.55 L -98.336 209.066 C -96.285 208.25 -93.897 207.568 -93.028 207.539 C -91.578 207.492 -91.404 207.635 -90.861 209.343 C -90.536 210.366 -90.126 212.017 -89.96 213.007 C -89.557 215.403 -87.729 217.005 -82.514 219.536 C -75.573 222.906 -72.691 223.643 -65.529 223.855 C -56.463 224.124 -57.153 223.758 -57.153 228.364 C -57.153 230.493 -57.455 233.258 -57.837 234.515 C -58.626 237.117 -58.738 238.892 -58.113 238.892 C -57.542 238.892 -53.519 237.209 -51.889 236.289 C -49.254 234.802 -49.091 235.287 -49.344 243.909 C -49.689 255.651 -50.911 261.318 -57.459 281.703 C -59.637 288.486 -61.726 295.034 -62.112 296.259 C -62.498 297.485 -62.707 298.793 -62.563 299.168 C -62.419 299.542 -62.122 299.851 -61.908 299.851 C -60.711 299.851 -48.186 268.534 -44.225 255.643 C -42.285 249.329 -40.401 237.588 -40.401 231.809 C -40.401 230.685 -40.087 229.55 -39.644 229.061 C -39 228.349 -38.955 227.918 -39.412 226.225 C -39.707 225.13 -40.243 221.281 -40.604 217.674 C -41.396 209.77 -42.594 205.845 -44.938 203.423 C -47.217 201.066 -52.4 198.978 -58.215 198.071 C -63.203 197.293 -64.599 196.511 -64.599 194.509 C -64.599 193.9 -64.876 193.169 -65.224 192.88 C -65.965 192.265 -66.727 192.787 -72.131 197.621 C -75.807 200.908 -77.267 201.409 -77.541 199.496 C -77.653 198.715 -76.959 198.029 -74.356 196.283 C -71.129 194.118 -69.717 192.69 -69.717 191.629 C -69.717 191.343 -71.786 190.22 -74.313 189.128 L -78.908 187.136 L -78.908 187.137 Z  M 79.545 187.137 L 74.949 189.129 C 72.423 190.221 70.354 191.345 70.354 191.631 C 70.354 192.691 71.781 194.119 75.008 196.284 C 77.61 198.03 78.29 198.717 78.178 199.498 C 77.904 201.41 76.444 200.909 72.768 197.622 C 67.364 192.788 66.617 192.266 65.875 192.881 C 65.528 193.17 65.236 193.901 65.236 194.51 C 65.236 196.512 63.855 197.295 58.866 198.073 C 53.052 198.98 47.869 201.068 45.589 203.424 C 43.246 205.847 42.047 209.771 41.256 217.676 C 40.894 221.283 40.358 225.131 40.063 226.226 C 39.607 227.92 39.637 228.35 40.281 229.062 C 40.724 229.552 41.037 230.687 41.037 231.811 C 41.037 235.179 42.003 243.159 42.986 247.966 C 44.375 254.758 45.44 258.099 50.97 272.863 C 55.102 283.895 55.78 285.564 59.2 293.221 C 60.83 296.868 62.346 299.852 62.56 299.852 C 63.364 299.852 63.441 298.415 62.763 296.26 C 62.378 295.035 60.274 288.486 58.095 281.704 C 51.548 261.319 50.34 255.652 49.995 243.91 C 49.742 235.288 49.905 234.803 52.54 236.29 C 54.17 237.21 58.193 238.893 58.764 238.893 C 59.389 238.893 59.277 237.118 58.488 234.516 C 58.107 233.259 57.79 230.494 57.79 228.365 C 57.79 223.759 57.1 224.125 66.166 223.856 C 73.328 223.644 76.21 222.907 83.151 219.537 C 88.366 217.006 90.209 215.404 90.611 213.008 C 90.777 212.018 91.172 210.367 91.498 209.344 C 92.041 207.636 92.229 207.493 93.679 207.54 C 94.548 207.569 96.936 208.251 98.987 209.067 L 102.71 210.551 L 104.891 209.591 C 107.374 208.492 109.156 206.557 108.599 205.563 C 108.238 204.917 107.153 204.236 96.18 197.812 C 93.109 196.014 88.11 192.881 85.07 190.846 L 79.545 187.138 L 79.545 187.137 Z  M -144.723 196.08 C -144.995 196.08 -146.654 197.023 -148.402 198.174 C -152.91 201.125 -159.705 204.221 -165.358 207.234 C -175.221 212.49 -185.298 217.362 -194.965 222.968 C -205.089 228.839 -215.088 234.966 -224.66 241.699 C -233.599 247.985 -242.839 254.076 -250.501 261.869 C -259.983 271.513 -268.512 282.364 -274.932 294.268 C -279.569 302.867 -282.654 312.136 -284.777 321.869 C -285.698 323.583 -288.106 337.205 -288.936 344.991 C -289.734 352.476 -289.878 360.034 -289.721 367.561 C -289.522 377.126 -288.697 386.684 -287.525 396.179 C -286.87 401.489 -285.818 406.744 -284.821 412.001 C -284.009 416.282 -283.1 420.546 -282.145 424.798 C -281.891 425.927 -281.608 427.852 -281.345 428.172 C -280.581 429.102 -279.13 428.847 -278.698 427.706 C -278.48 427.13 -278.056 424.785 -277.753 422.5 C -277.45 420.215 -277.055 418.765 -276.604 416.916 C -275.725 413.306 -274.716 409.717 -273.565 406.184 C -271.895 401.058 -270.143 395.943 -267.952 391.017 C -264.454 383.154 -260.319 375.568 -255.969 368.142 C -253.141 363.314 -250.071 358.625 -246.808 354.08 C -242.424 347.975 -237.812 342.025 -232.847 336.382 C -224.271 326.634 -215.178 317.31 -205.596 308.549 C -194.356 298.273 -182.092 289.19 -170.23 279.64 C -163.369 274.116 -156.333 268.751 -149.522 263.222 C -142.29 257.419 -137.343 252.607 -134.064 248.201 C -130.358 243.219 -126.954 235.309 -126.604 230.823 C -126.402 228.232 -126.477 228.011 -127.985 226.402 C -132.643 221.335 -135.426 215.966 -138.702 209.577 C -140.816 205.049 -141.791 202.411 -142.091 200.401 C -142.386 198.421 -143.807 196.082 -144.723 196.082 L -144.723 196.08 Z  M 144.749 196.08 C 143.833 196.08 142.412 198.419 142.117 200.399 C 141.817 202.409 140.842 205.047 138.728 209.575 C 135.452 215.965 132.669 221.333 128.011 226.4 C 126.503 228.009 126.427 228.23 126.63 230.821 C 126.98 235.306 130.369 243.217 134.075 248.199 C 137.354 252.606 142.316 257.417 149.548 263.22 C 156.358 268.749 163.395 274.114 170.256 279.638 C 182.117 289.188 194.383 298.271 205.621 308.547 C 215.204 317.308 224.297 326.633 232.873 336.38 C 237.837 342.023 242.449 347.973 246.833 354.078 C 250.097 358.623 253.167 363.312 255.995 368.14 C 260.344 375.566 264.479 383.152 267.977 391.015 C 270.169 395.941 271.921 401.056 273.591 406.182 C 274.742 409.715 275.736 413.304 276.615 416.914 C 277.066 418.763 277.476 420.213 277.779 422.498 C 278.082 424.783 278.506 427.129 278.724 427.704 C 279.156 428.845 280.607 429.1 281.371 428.17 C 281.633 427.85 281.917 425.925 282.171 424.796 C 283.125 420.544 284.034 416.28 284.846 411.999 C 285.843 406.742 286.896 401.487 287.551 396.177 C 288.722 386.681 289.533 377.124 289.732 367.559 C 289.889 360.033 289.759 352.475 288.962 344.989 C 288.132 337.203 285.723 323.582 284.803 321.867 C 282.679 312.134 279.58 302.865 274.943 294.266 C 268.524 282.362 259.995 271.51 250.512 261.867 C 242.851 254.074 233.624 247.983 224.685 241.697 C 215.113 234.965 205.114 228.837 194.991 222.966 C 185.323 217.36 175.246 212.488 165.384 207.232 C 159.73 204.219 152.936 201.123 148.427 198.172 C 146.679 197.021 145.021 196.078 144.748 196.078 L 144.749 196.08 Z  M -135.1 271.539 C -135.595 271.549 -136.086 272.006 -137.295 273.182 C -138.391 274.248 -140.569 276.136 -142.138 277.37 C -146.604 280.884 -154.07 287.061 -159.995 291.956 C -168.106 298.655 -176.334 305.208 -184.207 312.184 C -193.094 320.056 -202.253 327.732 -210.179 336.571 C -214.577 341.476 -218.573 346.775 -222.06 352.363 C -226.519 359.511 -230.437 367.049 -233.519 374.889 C -236.544 382.585 -238.817 390.61 -240.339 398.738 C -241.888 407.006 -242.657 415.455 -242.652 423.867 C -242.644 435.77 -241.341 447.689 -239.336 459.422 C -237.822 468.282 -235.499 477.017 -232.777 485.583 C -229.535 495.791 -225.586 505.78 -221.173 515.539 C -216.598 525.655 -208.699 540.572 -205.802 545.088 C -202.529 550.238 -200.041 554.872 -196.96 560.095 C -196.07 562.109 -195.06 562.349 -194.43 560.691 C -194.188 560.056 -193.977 551.984 -193.95 542.718 C -193.924 533.468 -193.973 530.825 -193.514 524.904 C -192.871 516.617 -191.773 508.356 -190.256 500.183 C -188.001 488.027 -185.191 475.946 -181.589 464.119 C -178.673 454.543 -175.255 445.371 -171.148 435.966 C -167.53 427.441 -160.934 414.571 -156.999 408.337 C -153.339 402.513 -149.63 395.768 -145.234 390.13 C -140.806 383.789 -135.866 377.786 -130.91 371.894 C -129.533 370.282 -119.81 359.341 -116.077 355.2 C -112.028 350.703 -107.829 345.668 -103.934 340.804 C -100.907 336.971 -100.811 336.784 -101.011 334.638 C -101.125 333.42 -101.567 332.046 -101.986 331.584 C -103.293 330.08 -103.736 328.011 -104.618 326.233 C -106.905 321.621 -107.684 319.606 -111.511 312.418 C -113.212 309.223 -113.499 308.924 -114.943 308.797 C -116.528 308.658 -119.478 309.352 -125.253 313.552 C -130.547 317.391 -135.774 322.035 -140.682 326.451 C -145.028 329.89 -153.564 338.365 -159.281 344.992 C -166.337 353.172 -172.591 362.04 -178.549 371.051 C -183.457 378.521 -187.666 386.835 -191.854 395.482 C -195.873 404.448 -199.534 413.597 -202.586 422.938 C -204.73 429.497 -206.409 436.208 -207.894 442.948 C -209.251 449.101 -210.3 454.785 -211.181 461.562 C -211.713 465.657 -212.27 469.897 -212.417 470.985 C -212.564 472.073 -212.85 472.963 -213.057 472.963 C -213.641 472.963 -213.757 466.87 -213.449 453.186 C -213.16 440.342 -212.378 434.314 -210.715 425.033 C -209.584 418.717 -207.853 412.503 -205.815 406.419 C -202.779 397.358 -199.141 388.475 -194.937 379.894 C -191.911 373.718 -188.452 367.743 -184.656 362.007 C -178.626 352.898 -172.069 344.112 -164.893 335.875 C -157.685 327.6 -145.331 315.801 -141.597 312.608 C -136.811 308.516 -132.916 305.3 -128.509 301.818 C -124.334 298.519 -123.696 297.778 -123.696 296.219 C -123.695 295.55 -125.047 292.464 -127.215 288.206 C -127.546 287.556 -128.12 286.195 -128.494 285.182 C -128.869 284.168 -129.644 282.183 -130.21 280.775 C -130.777 279.368 -131.589 276.967 -132.014 275.439 C -132.595 273.345 -133.088 272.48 -134.035 271.948 C -134.493 271.691 -134.799 271.536 -135.096 271.541 L -135.1 271.539 Z  M 135.115 271.539 C 134.818 271.529 134.512 271.689 134.054 271.946 C 133.107 272.478 132.614 273.343 132.032 275.436 C 131.608 276.965 130.796 279.365 130.229 280.773 C 129.663 282.181 128.887 284.166 128.513 285.179 C 128.139 286.193 127.564 287.554 127.233 288.204 C 125.066 292.461 123.714 295.548 123.714 296.217 C 123.715 297.776 124.352 298.516 128.528 301.815 C 132.935 305.298 136.83 308.513 141.615 312.606 C 145.349 315.799 157.689 327.598 164.897 335.872 C 172.073 344.11 178.645 352.895 184.674 362.005 C 188.471 367.74 191.93 373.715 194.955 379.892 C 199.159 388.473 202.797 397.356 205.833 406.416 C 207.872 412.5 209.603 418.715 210.734 425.031 C 212.396 434.312 213.179 440.34 213.468 453.183 C 213.776 466.868 213.66 472.96 213.075 472.96 C 212.869 472.96 212.568 472.07 212.421 470.983 C 212.274 469.895 211.717 465.655 211.185 461.56 C 210.304 454.783 209.255 449.099 207.898 442.945 C 206.413 436.207 204.748 429.494 202.605 422.935 C 199.553 413.595 195.892 404.446 191.873 395.48 C 187.685 386.832 183.475 378.52 178.567 371.049 C 172.61 362.037 166.355 353.169 159.299 344.99 C 153.582 338.362 145.046 329.888 140.701 326.449 C 135.792 322.033 130.566 317.389 125.272 313.55 C 119.497 309.35 116.547 308.655 114.961 308.795 C 113.518 308.922 113.23 309.22 111.529 312.416 C 107.703 319.604 106.924 321.619 104.636 326.23 C 103.754 328.009 103.297 330.078 101.99 331.582 C 101.572 332.044 101.144 333.417 101.03 334.636 C 100.83 336.782 100.926 336.969 103.953 340.801 C 107.847 345.666 112.046 350.701 116.095 355.198 C 119.828 359.338 129.552 370.279 130.929 371.892 C 135.885 377.783 140.825 383.787 145.252 390.127 C 149.648 395.766 153.357 402.51 157.017 408.334 C 160.953 414.569 167.548 427.439 171.167 435.964 C 175.274 445.369 178.692 454.541 181.608 464.116 C 185.21 475.943 188.02 488.025 190.275 500.181 C 191.791 508.354 192.889 516.615 193.532 524.902 C 193.992 530.822 193.928 533.466 193.954 542.716 C 193.981 551.982 194.207 560.054 194.449 560.689 C 195.079 562.347 196.088 562.106 196.979 560.093 C 200.06 554.869 202.548 550.236 205.82 545.086 C 208.717 540.569 216.617 525.653 221.191 515.537 C 225.604 505.778 229.553 495.788 232.796 485.58 C 235.517 477.014 237.841 468.279 239.355 459.42 C 241.359 447.686 242.663 435.768 242.67 423.864 C 242.675 415.453 241.907 407.004 240.358 398.736 C 238.835 390.608 236.563 382.583 233.538 374.887 C 230.456 367.046 226.538 359.509 222.078 352.361 C 218.591 346.772 214.581 341.473 210.183 336.569 C 202.258 327.729 193.113 320.054 184.226 312.182 C 176.352 305.206 168.124 298.653 160.014 291.954 C 154.088 287.058 146.623 280.882 142.157 277.368 C 140.588 276.133 138.41 274.246 137.314 273.18 C 136.105 272.003 135.614 271.545 135.118 271.537 L 135.115 271.539 Z  M -51.678 314.278 C -52.593 314.278 -52.627 314.466 -52.361 317.638 C -52.128 320.419 -51.673 321.773 -49.715 325.665 C -48.124 328.825 -46.814 330.788 -45.672 331.7 C -43.712 333.263 -35.274 337.505 -28.541 340.309 C -19.68 343.999 -18.274 344.631 -12.08 347.681 C -8.658 349.367 -5.287 351.593 -4.286 352.233 C -3.253 352.893 -2.831 354.23 -2.86 355.665 L -2.73 365.524 L -2.497 374.162 C -2.428 375.433 -2.419 376.367 -3.675 377.696 C -3.675 377.696 -6.015 379.822 -7.238 380.822 C -11.797 384.553 -16.107 388.742 -21.314 391.497 C -25.9 393.921 -30.896 396.154 -36.074 396.455 C -41.143 396.75 -44.626 395.762 -50.965 393.314 C -53.62 392.289 -56.089 391.563 -56.447 391.7 C -57.412 392.07 -59.021 397.749 -59.021 400.803 C -59.021 406.156 -56.509 411.921 -52.594 415.607 C -51.123 416.991 -49.568 418.05 -49.002 418.05 C -48.319 418.05 -44.155 413.169 -41.44 411.07 C -35.67 406.609 -29.822 401.905 -23.029 399.247 C -15.794 396.416 -8.699 395.033 -0.082 395.175 C -0.05 395.176 -0.027 395.175 0.005 395.175 C 0.037 395.175 0.06 395.176 0.092 395.175 C 8.71 395.033 15.804 396.416 23.039 399.247 C 29.831 401.904 35.68 406.609 41.45 411.07 C 44.165 413.169 48.329 418.05 49.012 418.05 C 49.578 418.05 51.133 416.991 52.604 415.607 C 56.52 411.92 59.031 406.155 59.031 400.803 C 59.031 397.749 57.422 392.07 56.457 391.7 C 56.099 391.563 53.63 392.289 50.975 393.314 C 44.637 395.762 41.153 396.75 36.084 396.455 C 30.905 396.154 25.909 393.921 21.324 391.497 C 16.116 388.743 11.807 384.553 7.248 380.822 C 6.025 379.822 3.685 377.696 3.685 377.696 C 2.429 376.367 2.438 375.433 2.507 374.162 L 2.74 365.524 L 2.871 355.665 C 2.841 354.23 3.263 352.893 4.296 352.233 C 5.297 351.593 8.668 349.367 12.09 347.681 C 18.284 344.631 19.69 343.999 28.552 340.309 C 35.284 337.505 43.723 333.263 45.682 331.7 C 46.824 330.788 48.134 328.825 49.725 325.665 C 51.683 321.773 52.138 320.419 52.371 317.638 C 52.637 314.466 52.603 314.278 51.688 314.278 C 51.156 314.278 49.251 315.578 47.456 317.158 C 45.661 318.737 42.965 320.57 41.479 321.229 C 38.932 322.36 38.343 322.421 31.082 322.422 C 24.616 322.422 23.2 322.555 22.182 323.222 C 19.226 325.157 12.026 327.686 7.437 328.413 C 4.516 328.876 2.25 329.105 0.006 329.111 C -2.238 329.101 -4.504 328.876 -7.425 328.413 C -12.014 327.686 -19.214 325.157 -22.171 323.222 C -23.188 322.555 -24.604 322.422 -31.07 322.422 C -38.332 322.421 -38.92 322.361 -41.467 321.229 C -42.953 320.57 -45.649 318.737 -47.444 317.158 C -49.239 315.578 -51.144 314.278 -51.676 314.278 L -51.678 314.278 Z  M -81.532 324.516 C -83.293 324.516 -83.431 326.433 -81.081 329.794 C -77.987 334.221 -75.819 336.203 -72.589 338.752 C -69.192 341.433 -65.463 343.913 -61.348 345.252 C -57.982 346.348 -54.329 346.319 -50.79 346.358 C -48.096 346.387 -42.91 345.973 -42.734 345.689 C -42.135 344.72 -43.719 343.656 -45.192 343.362 C -48.5 342.702 -55.821 341.355 -60.694 339.13 C -65.453 336.958 -70.332 333.712 -73.738 330.405 C -77.144 327.098 -79.94 324.516 -81.532 324.516 L -81.532 324.516 Z  M -88.731 328.369 C -89.044 328.395 -89.329 328.575 -89.618 328.864 C -90.256 329.502 -90.12 330.04 -88.338 334.143 C -84.989 341.853 -81.338 347.513 -75.802 352.393 C -72.191 355.577 -67.665 357.917 -62.976 359.01 C -57.474 360.292 -52.734 359.608 -46.02 358.704 C -41.209 358.056 -35.814 357.251 -30.678 357.279 C -26.372 357.304 -18.861 358.558 -17.838 358.617 C -16.15 358.714 -15.958 358.603 -15.831 357.512 C -15.684 356.245 -17.149 355.02 -21.648 352.611 C -26.946 349.775 -34.07 349.061 -42.399 350.532 C -48.446 351.599 -57.498 351.874 -60.882 351.099 C -69.68 349.083 -75.776 344.26 -84.382 332.528 C -86.609 329.492 -87.791 328.292 -88.73 328.369 L -88.731 328.369 Z  M -96.394 352.043 C -97.007 352.033 -97.937 353.128 -99.521 355.112 C -100.9 356.839 -104.13 360.661 -106.704 363.604 C -115.268 373.413 -125.653 385.692 -133.011 398.97 C -138.081 407.752 -144.45 420.496 -146.274 425.495 C -148.839 432.447 -151.977 439.176 -153.966 446.668 C -157.582 458.283 -161.001 472.078 -162.779 485.102 C -165.118 502.241 -165.182 520.334 -165.164 536.944 C -164.235 546.608 -163.549 556.506 -161.325 566.028 C -158.202 579.393 -154.819 592.187 -148.062 605.015 C -145.773 608.611 -143.108 613.301 -140.02 616.895 C -137.685 619.772 -136.245 620.64 -135.585 619.571 C -135.304 619.116 -135.959 615.93 -136.981 612.795 C -137.908 609.892 -138.082 606.719 -138.886 603.749 C -139.696 600.356 -140.72 591.394 -141.445 581.238 C -142.099 572.084 -140.933 554.697 -139.046 545.552 C -137.556 538.25 -136.821 529.619 -134.363 522.052 C -130.272 503.666 -122.732 485.13 -114.776 468.043 C -110.344 458.661 -104.521 447.929 -98.866 438.189 C -92.205 427.06 -84.188 414.609 -76.37 403.521 C -74.331 400.531 -72.094 397.795 -70.481 394.781 C -74.412 391.873 -78.484 388.923 -81.838 386.317 C -86.24 382.845 -90.001 378.089 -91.901 373.608 C -92.999 371.019 -93.485 368.434 -94.81 358.019 C -95.335 353.887 -95.607 352.053 -96.395 352.042 L -96.394 352.043 Z  M 96.407 352.043 C 95.619 352.054 95.347 353.888 94.822 358.02 C 93.497 368.436 93.011 371.02 91.914 373.609 C 90.014 378.09 86.238 382.846 81.836 386.319 C 78.482 388.924 74.425 391.874 70.493 394.782 C 72.106 397.796 74.343 400.532 76.382 403.522 C 84.2 414.61 92.217 427.062 98.878 438.19 C 104.533 447.931 110.355 458.663 114.788 468.044 C 122.744 485.131 130.285 503.668 134.375 522.053 C 136.833 529.619 137.553 538.251 139.043 545.553 C 140.931 554.698 142.111 572.085 141.457 581.239 C 140.732 591.395 139.708 600.358 138.898 603.751 C 138.094 606.72 137.92 609.894 136.993 612.796 C 135.971 615.931 135.316 619.117 135.597 619.572 C 136.257 620.641 137.697 619.774 140.032 616.897 C 143.12 613.302 145.785 608.612 148.074 605.016 C 154.831 592.188 158.214 579.395 161.337 566.029 C 163.561 556.507 164.247 546.609 165.176 536.945 C 165.194 520.335 165.13 502.242 162.791 485.103 C 161.013 472.078 157.594 458.284 153.978 446.669 C 151.989 439.177 148.851 432.448 146.286 425.496 C 144.463 420.497 138.093 407.752 133.023 398.971 C 125.666 385.693 115.28 373.414 106.716 363.606 C 104.142 360.662 100.897 356.841 99.518 355.113 C 97.934 353.129 97.019 352.036 96.406 352.045 L 96.407 352.043 Z  M 31.491 368.621 C 30.104 368.638 29.427 369.249 29.412 370.468 C 29.396 371.759 41.155 376.845 45.685 377.506 C 49.554 378.071 53.518 377.352 58.249 375.223 C 64.146 372.569 65.687 371.532 65.694 370.221 C 65.703 368.626 64.847 368.575 60.372 369.871 C 57.033 370.839 55.304 371.052 50.876 371.049 C 44.077 371.049 38.667 370.437 34.764 369.232 C 33.414 368.815 32.324 368.611 31.492 368.621 L 31.491 368.621 Z  M -68.936 418.616 C -69.059 418.64 -69.164 418.713 -69.27 418.82 C -69.487 419.038 -74.615 427.588 -80.671 437.826 C -96.473 464.537 -99.702 472.302 -106.498 490.701 C -110.683 502.03 -114.276 513.77 -115.587 525.776 C -117.727 545.374 -117.752 565.633 -113.464 584.875 C -109.655 601.966 -106.697 612.325 -92.872 633.198 C -89.448 638.368 -87.375 640.729 -84.016 644.076 C -83.742 644.349 -83.291 644.709 -82.838 644.687 C -81.348 644.687 -81.84 643.693 -82.01 642.229 C -83.223 632.193 -83.734 606.727 -83.202 583.247 C -82.66 560.756 -80.998 537.037 -77.894 514.144 C -75.973 499.971 -72.94 486.024 -69.663 472.031 C -67.875 464.965 -63.743 450.558 -60.109 438.759 C -58.744 434.326 -58.673 434.601 -63.149 426.69 C -66.681 420.445 -68.076 418.449 -68.936 418.619 L -68.936 418.616 Z  M 68.743 418.616 C 67.866 418.756 66.439 420.888 63.159 426.687 C 58.683 434.599 58.754 434.323 60.119 438.756 C 63.753 450.556 67.885 464.962 69.674 472.028 C 72.95 486.021 75.968 499.969 77.89 514.141 C 80.993 537.034 82.67 560.754 83.212 583.244 C 83.744 606.724 83.219 632.191 82.005 642.226 C 81.836 643.69 81.358 644.684 82.849 644.684 C 83.301 644.706 83.752 644.346 84.027 644.073 C 87.385 640.726 89.459 638.366 92.883 633.195 C 106.706 612.324 109.665 601.963 113.474 584.872 C 117.763 565.63 117.723 545.371 115.583 525.773 C 114.272 513.767 110.694 502.027 106.509 490.698 C 99.712 472.301 96.483 464.534 80.682 437.823 C 74.625 427.586 69.497 419.035 69.28 418.817 C 69.122 418.657 68.945 418.581 68.742 418.613 L 68.743 418.616 Z  M -42.245 443.643 C -42.504 443.643 -43.003 444.323 -43.35 445.155 C -47.081 453.663 -49.257 462.14 -51.305 470.88 C -53.655 480.91 -54.97 491.167 -56.249 501.389 C -57.156 508.637 -57.036 506.818 -58.183 523.217 C -58.926 533.83 -58.838 537.908 -57.602 549.742 C -56.658 558.77 -56.095 561.632 -54.621 567.425 C -52.942 574.022 -51.365 580.511 -47.975 586.737 C -43.442 595.553 -36.076 603.908 -27.674 609.772 C -25.845 611.048 -23.9 612.094 -23.341 612.098 C -22.032 612.109 -21.663 611.25 -22.396 609.393 C -22.899 608.341 -23.24 607.494 -23.574 606.514 C -26.273 598.595 -28.262 590.451 -30.277 582.331 C -31.885 575.854 -33.27 569.319 -34.567 562.772 C -35.792 556.591 -36.941 550.393 -37.854 544.158 C -38.906 536.973 -39.909 529.765 -40.384 522.519 C -41.206 509.98 -41.753 494.947 -41.926 481.395 C -42.076 469.601 -41.932 458.938 -41.431 452.034 C -40.993 445.985 -41.218 443.643 -42.245 443.643 L -42.245 443.643 Z  M 42.244 443.643 C 41.217 443.643 40.991 445.984 41.429 452.033 C 41.93 458.937 42.074 469.601 41.924 481.394 C 41.751 494.946 41.19 509.979 40.368 522.518 C 39.893 529.764 38.904 536.971 37.852 544.157 C 36.939 550.391 35.79 556.59 34.566 562.771 C 33.269 569.317 31.883 575.853 30.276 582.33 C 28.26 590.45 26.272 598.594 23.572 606.513 C 23.238 607.493 22.897 608.34 22.394 609.393 C 21.662 611.249 22.031 612.104 23.339 612.098 C 23.898 612.098 25.843 611.048 27.673 609.771 C 36.074 603.908 43.441 595.553 47.973 586.736 C 51.363 580.51 52.926 574.021 54.604 567.424 C 56.079 561.631 56.657 558.77 57.6 549.741 C 58.837 537.907 58.924 533.83 58.182 523.216 C 57.035 506.818 57.154 508.636 56.248 501.388 C 54.969 491.167 53.653 480.909 51.303 470.879 C 49.256 462.139 47.08 453.663 43.349 445.154 C 43.001 444.322 42.502 443.642 42.244 443.642 L 42.244 443.643 Z  M -2.676 449.692 C -16.692 449.702 -17.622 449.794 -18.163 450.564 C -18.863 451.562 -17.981 465.953 -17.668 473.643 C -17.335 481.831 -16.785 490.016 -16.199 498.19 C -15.567 507.018 -14.968 515.845 -13.989 524.642 C -13.156 532.127 -12.546 539.682 -10.863 547.022 C -9.3 553.837 -7.003 560.491 -4.421 566.989 C -3.151 570.183 -1.054 575.397 0 576.295 C 1.054 575.397 3.152 570.183 4.421 566.989 C 7.003 560.491 9.3 553.838 10.863 547.022 C 12.547 539.682 13.157 532.127 13.99 524.642 C 14.968 515.845 15.567 507.019 16.2 498.19 C 16.786 490.015 17.335 481.831 17.669 473.643 C 17.982 465.953 18.863 451.562 18.163 450.564 C 17.622 449.793 16.692 449.7 2.676 449.692 C 1.353 449.746 0.687 449.78 0.001 449.78 C -0.686 449.78 -1.351 449.746 -2.675 449.692 L -2.676 449.692 Z " fill-rule="evenodd" fill="rgb(255,235,59)"/></g></svg>